<?xml version="1.0" standalone="no"?>
<!DOCTYPE svg PUBLIC "-//W3C//DTD SVG 20010904//EN"
 "http://www.w3.org/TR/2001/REC-SVG-20010904/DTD/svg10.dtd">
<svg version="1.0" xmlns="http://www.w3.org/2000/svg"
 width="950.000000pt" height="950.000000pt" viewBox="0 0 950.000000 950.000000"
 preserveAspectRatio="xMidYMid meet">

<g transform="translate(0.000000,950.000000) scale(0.100000,-0.100000)"
fill="#000000" stroke="none">
<path d="M2906 9198 l-186 -163 1 -345 0 -345 185 -179 185 -178 303 4 304 4
17 -28 c16 -28 16 -28 -12 -28 -70 -1 -154 -65 -195 -149 -18 -37 -22 -64 -23
-136 0 -79 3 -97 29 -149 20 -40 42 -68 72 -89 l44 -31 0 -80 c0 -45 3 -138 7
-208 l6 -128 -76 0 c-165 0 -875 -49 -1097 -76 -167 -20 -420 -64 -445 -77
-11 -5 -102 -79 -201 -164 l-182 -153 -6 -183 c-3 -100 -20 -1480 -37 -3067
l-31 -2885 132 -128 132 -127 2982 0 2981 1 129 126 130 126 -42 2926 c-23
1609 -45 2990 -48 3068 l-6 143 -180 152 c-99 84 -190 158 -202 165 -30 16
-355 69 -536 88 -183 18 -518 43 -813 58 l-229 12 1 185 c2 224 5 244 42 270
15 11 40 46 56 78 24 50 28 69 28 147 0 78 -4 97 -28 147 -33 68 -85 114 -144
131 -48 12 -49 15 -29 43 14 18 27 19 298 16 l283 -3 183 181 182 181 0 342 0
342 -186 163 -185 162 -1704 0 -1704 0 -185 -162z m3398 -122 c20 -23 36 -46
36 -50 0 -3 -693 -6 -1540 -6 -847 0 -1540 3 -1540 6 0 4 16 27 36 50 l35 44
1469 0 1469 0 35 -44z m-3150 12 c-24 -40 -50 -68 -63 -68 -9 0 -1 15 24 40
40 41 52 49 39 28z m3355 -67 c-12 -4 -39 26 -61 64 -6 11 8 2 31 -20 23 -22
37 -41 30 -44z m-3439 -341 l0 -240 -60 0 -60 0 0 240 0 240 60 0 60 0 0 -240z
m3330 0 l0 -240 -1600 0 -1600 0 0 240 0 240 1600 0 1600 0 0 -240z m240 0 l0
-240 -65 0 -65 0 0 240 0 240 65 0 65 0 0 -240z m-3517 -382 c42 -57 41 -64
-2 -23 -22 21 -41 43 -41 47 0 18 20 6 43 -24z m3217 24 c0 -4 -15 -29 -34
-55 l-35 -49 -1477 0 -1476 0 -34 48 c-19 26 -34 51 -34 56 0 4 695 8 1545 8
850 0 1545 -3 1545 -8z m178 0 c-1 -4 -25 -28 -53 -52 -43 -39 -47 -41 -31
-15 38 60 51 74 69 75 10 0 17 -4 15 -8z m-850 -337 c1 -1 -3 -14 -9 -29 l-12
-26 -823 0 c-804 0 -824 0 -834 19 -5 11 -10 24 -10 30 0 7 113 12 348 13 343
3 1334 -3 1340 -7z m236 -291 c3 -9 6 -33 6 -55 l0 -39 -1080 0 c-1057 0
-1080 0 -1090 19 -5 11 -10 36 -10 55 l0 36 1084 0 c979 0 1084 -2 1090 -16z
m-128 -426 c-3 -50 -6 -140 -6 -200 l0 -110 -944 4 -943 3 -7 89 c-3 49 -6
138 -6 198 l0 108 956 0 957 0 -7 -92z m-36 -518 c382 -9 630 -21 1095 -55
210 -15 531 -53 553 -64 9 -5 -2 -27 -38 -79 l-51 -72 -2499 0 -2500 0 -45 67
c-31 48 -41 69 -32 74 6 4 57 14 112 23 202 32 392 49 975 87 386 25 1713 36
2430 19z m1868 -246 c51 -42 92 -77 90 -79 -12 -10 -169 -95 -176 -95 -4 0
-32 22 -62 48 l-54 48 49 77 c27 42 51 77 54 77 3 0 48 -34 99 -76z m-5469 -5
l44 -71 -44 -38 c-78 -68 -77 -68 -163 -18 l-76 44 93 77 c50 42 94 77 97 77
3 0 25 -32 49 -71z m5232 -191 l79 -61 0 -2824 0 -2823 -2660 0 -2660 0 0
2818 0 2819 78 66 77 66 2503 1 2503 0 80 -62z m-5430 -35 l69 -38 0 -2822 0
-2823 -105 0 -105 0 0 188 c0 103 14 1292 30 2642 16 1350 30 2553 30 2673 0
119 3 217 6 217 3 0 37 -17 75 -37z m5810 -210 c0 -137 15 -1426 32 -2866 l32
-2617 -117 0 -118 0 -2 2818 -3 2817 80 47 c44 25 83 47 88 47 4 1 7 -110 8
-246z m-5691 -5643 c16 -33 30 -62 30 -65 0 -3 -40 -5 -88 -5 l-88 0 -57 58
c-31 32 -57 61 -57 65 0 4 52 7 115 7 l115 0 30 -60z m5350 35 c0 -2 -11 -29
-24 -60 l-25 -55 -2565 0 -2566 0 -19 38 c-10 20 -22 47 -25 60 l-7 22 2615 0
c1439 0 2616 -2 2616 -5z m390 -2 c0 -4 -23 -31 -52 -60 l-52 -53 -103 0 c-57
0 -103 2 -103 5 0 2 11 29 24 60 l25 55 130 0 c72 0 131 -3 131 -7z"/>
<path d="M4774 7330 c-159 -79 -107 -320 69 -320 182 0 238 240 75 319 -55 26
-92 27 -144 1z m114 -112 c30 -30 1 -98 -41 -98 -29 0 -57 29 -57 60 0 34 17
50 55 50 17 0 36 -5 43 -12z"/>
</g>
</svg>
